<?xml version="1.0" encoding="UTF-8"?>
<svg width="304px" height="156px" viewBox="0 0 304 156" version="1.1" xmlns="http://www.w3.org/2000/svg" xmlns:xlink="http://www.w3.org/1999/xlink">
    <!-- Generator: Sketch 43.2 (39069) - http://www.bohemiancoding.com/sketch -->
    <title>angular-airship</title>
    <desc>Created with Sketch.</desc>
    <defs>
        <polygon id="path-1" points="178.70496 73.6317672 110 73.6317672 110 0 178.70496 1.04637139e-14"></polygon>
    </defs>
    <g id="Page-1" stroke="none" stroke-width="1" fill="none" fill-rule="evenodd">
        <g id="angular-airship">
            <path d="M159.555255,105.755 C156.458779,97.63 147.935323,91 145.995951,91 L145.670006,91 C143.714337,91 135.207178,97.63 132.110703,105.755 C131.279543,107.94875 135.370151,138.6775 136.331688,143.21125 C136.373785,143.749122 136.789025,144.18352 137.325819,144.25125 L142.214991,144.25125 C142.052019,142.74 141.937938,141.18 141.823858,139.66875 C141.409216,135.348202 141.224255,131.008797 141.269752,126.66875 C142.100911,124.6375 144.252146,121.92375 145.849276,121.92375 L145.849276,121.92375 C147.479,121.92375 149.581344,124.6375 150.4288,126.63625 C150.78734,127.51375 150.102856,136.7275 149.353182,144.18625 L154.242354,144.18625 C154.779149,144.11852 155.194389,143.684122 155.236486,143.14625 C156.263212,138.645 160.370117,107.965 159.538957,105.77125 L159.555255,105.755 Z M150.673259,113.685 C150.673259,114.15625 150.477692,114.205 150.233233,113.92875 C149.152396,112.358526 147.634017,111.138305 145.865573,110.41875 L145.865573,110.41875 C144.10799,111.156551 142.594324,112.372984 141.497913,113.92875 C141.253454,114.25375 141.106779,114.205 141.057887,113.685 C141.057887,112.40125 140.943807,109.1025 141.057887,108.89125 C142.1661,105.64125 145.229981,102.91125 145.947059,102.91125 L145.947059,102.91125 C146.664138,102.91125 149.679127,105.57625 150.836231,108.89125 C150.934242,110.487672 150.934242,112.088578 150.836231,113.685 L150.673259,113.685 Z" id="Shape-Copy" fill="#FFFFFF" fill-rule="nonzero"></path>
            <path d="M163.763355,152.9325 C165.393079,151.3075 169.288119,136.37375 169.337011,132.23 C169.226623,130.914254 168.648684,129.681049 167.707287,128.7525 C165.371655,126.583685 162.821703,124.656347 160.096476,123 C159.346803,130.3775 157.391134,141.47625 157,143.94625 C157.961537,146.465 161.693605,152.33125 163.763355,152.9975 L163.763355,152.9325 Z" id="Shape-3-Copy" fill="#FFFFFF" fill-rule="nonzero"></path>
            <path d="M263.126446,97.08125 C261.773775,97.08125 186.073096,96.9675 180.857979,97.08125 C178.479852,97.0800746 176.19023,97.9804886 174.453164,99.6 C172.660467,101.225 161.252399,115.395 161.252399,115.525 C161.252399,116.435 161.056832,117.9625 161.007941,118.775 C160.959049,119.5875 161.122021,119.8475 161.887992,120.4 C162.246531,120.67625 163.908849,121.74875 164.511847,122.23625 C167.815225,118.618858 171.336517,115.205454 175.056162,112.015 C177.598531,109.9025 179.5542,109.49625 184.915992,109.49625 L250.82203,109.49625 C253.974543,109.843979 257.097928,108.629815 259.182514,106.24625 C261.493926,104.049745 263.407141,101.471367 264.837656,98.625 C265.277682,97.715 264.951737,97 263.207932,97 L263.126446,97.08125 Z" id="Shape-5-Copy" fill="#FFFFFF" fill-rule="nonzero"></path>
            <path d="M231.368894,112.204453 C230.016223,112.204453 187.806372,112.041953 182.803119,112.041953 C180.004286,111.785757 177.225911,112.711162 175.143417,114.593203 C173.35072,116.218203 165.919179,123.498203 166.000665,123.563203 C167.856018,125.013184 169.559594,126.64649 171.085404,128.438203 C172.193616,127.479453 173.187748,126.715703 174.703391,125.561953 C177.327247,123.530703 180.277047,123.774453 185.606245,123.774453 L219.651179,123.936953 C222.803692,124.284682 225.927077,123.070517 228.011663,120.686953 C230.117991,118.742488 231.832723,116.415006 233.063807,113.829453 C233.503833,112.870703 233.177888,112.204453 231.320003,112.204453 L231.368894,112.204453 Z" id="Shape-7-Copy" fill="#FFFFFF" fill-rule="nonzero"></path>
            <path d="M200.090573,126.190308 C198.737902,126.190308 184.852654,126.027808 179.849401,126.027808 C177.633844,125.840074 175.444007,126.609325 173.83572,128.140308 C173.019788,128.770702 172.256725,129.466337 171.554106,130.220308 C172.075618,132.056558 171.554106,134.884058 171,137.792808 C171.994132,137.792808 186.270514,137.955308 188.503236,137.955308 C191.655749,138.303037 194.779134,137.088873 196.86372,134.705308 C198.970048,132.760843 200.68478,130.433361 201.915864,127.847808 C202.35589,126.856558 202.029945,126.222808 200.172059,126.222808 L200.090573,126.190308 Z" id="Shape-9-Copy" fill="#FFFFFF" fill-rule="nonzero"></path>
            <path d="M149.079053,127.78625 C148.571086,126.194825 147.491609,124.846497 146.047767,124 L146.047767,124 C144.603924,124.846497 143.524447,126.194825 143.01648,127.78625 C142.853508,128.30625 143.929125,149.7725 144.923257,153.315 C145.118824,153.9975 145.754416,155.265 146.080361,155.265 C146.632472,154.728663 147.031789,154.055717 147.237465,153.315 C148.068624,150.43875 149.307215,128.30625 149.144242,127.78625 L149.079053,127.78625 Z" id="Shape-10-Copy" fill="#FFFFFF" fill-rule="nonzero"></path>
            <path d="M60.9139071,112.199191 C62.266578,112.199191 104.476429,112.036691 109.479682,112.036691 C112.25661,111.799069 115.007626,112.723227 117.074196,114.587941 C118.866892,116.212941 126.298434,123.492941 126.216947,123.557941 C124.361594,125.007923 122.658018,126.641228 121.132209,128.432941 C120.023996,127.474191 119.029865,126.710441 117.514221,125.556691 C114.890366,123.525441 111.940565,123.769191 106.611368,123.769191 L72.5664337,123.931691 C69.4139202,124.27942 66.2905357,123.065256 64.2059496,120.681691 C62.0996218,118.737226 60.3848897,116.409744 59.1538052,113.824191 C58.7626714,112.865441 59.0397245,112.199191 60.8976099,112.199191 L60.9139071,112.199191 Z" id="Shape-15-Copy" fill="#FFFFFF" fill-rule="nonzero"></path>
            <path d="M91.8042211,126.190308 C93.156892,126.190308 107.04214,126.027808 112.045393,126.027808 C114.26095,125.840074 116.450788,126.609325 118.059075,128.140308 C118.897549,128.767902 119.682496,129.46361 120.405877,130.220308 C119.884366,132.056558 120.405877,134.884058 120.959983,137.792808 C119.965852,137.792808 105.68947,137.955308 103.456748,137.955308 C100.304234,138.303037 97.1808497,137.088873 95.0962636,134.705308 C93.0383941,132.754151 91.3685501,130.433069 90.1744971,127.864058 C89.7344717,126.872808 90.0604165,126.239058 91.9183018,126.239058 L91.8042211,126.190308 Z" id="Shape-17-Copy" fill="#FFFFFF" fill-rule="nonzero"></path>
            <path d="M28.8299222,97.08125 C30.1825931,97.08125 105.883273,96.9675 111.098389,97.08125 C113.476516,97.0800746 115.766138,97.9804886 117.503205,99.6 C119.295901,101.225 130.703969,115.395 130.703969,115.525 C130.703969,116.435 130.899536,117.9625 130.948428,118.775 C130.997319,119.5875 130.834347,119.8475 130.068377,120.4 C129.709837,120.67625 128.047519,121.74875 127.444521,122.23625 C124.141143,118.618858 120.619852,115.205454 116.900207,112.015 C114.357837,109.9025 112.402168,109.49625 107.040377,109.49625 L41.1995273,109.49625 C38.0470139,109.843979 34.9236294,108.629815 32.8390432,106.24625 C30.5276312,104.049745 28.6144161,101.471367 27.183901,98.625 C26.7438755,97.715 27.0209286,97 28.813625,97 L28.8299222,97.08125 Z" id="Shape-18-Copy" fill="#FFFFFF" fill-rule="nonzero"></path>
            <path d="M127.573656,152.9325 C125.943932,151.3075 122.048892,136.37375 122,132.23 C122.110387,130.914254 122.688326,129.681049 123.629724,128.7525 C125.965356,126.583685 128.515308,124.656347 131.240535,123 C131.990208,130.3775 133.945877,141.47625 134.337011,143.94625 C133.375473,146.465 129.610811,152.33125 127.573656,152.9975 L127.573656,152.9325 Z" id="Shape-2-Copy" fill="#FFFFFF" fill-rule="nonzero"></path>
            <path d="M290.203346,97.04875 L267.38721,97.04875 C267.110157,100.445 261.585393,107.41625 258,109.49625 L277.850038,109.49625 C281.002552,109.843979 284.125936,108.629815 286.210522,106.24625 C288.521934,104.049745 290.435149,101.471367 291.865665,98.625 C292.30569,97.715 291.979745,97 290.235941,97 L290.203346,97.04875 Z" id="Shape-4-Copy" fill="#FFFFFF" fill-rule="nonzero"></path>
            <path d="M258.600348,112 L235.784212,112 C235.507159,115.39625 230.617987,121.6525 227,123.7325 L246.850038,123.7325 C250.002552,124.080229 253.125936,122.866065 255.210522,120.4825 C257.31685,118.538035 259.031582,116.210553 260.262667,113.625 C260.735287,112.66625 260.425639,112 258.632943,112 L258.600348,112 Z" id="Shape-6-Copy" fill="#FFFFFF" fill-rule="nonzero"></path>
            <path d="M227.600348,126 L204.784212,126 C204.507159,129.39625 199.617987,135.6525 196,137.7325 L215.964119,137.7325 C219.116632,138.080229 222.240017,136.866065 224.324603,134.4825 C226.430931,132.538035 228.145663,130.210553 229.376747,127.625 C229.849367,126.66625 229.53972,126 227.747023,126 L227.600348,126 Z" id="Shape-8-Copy" fill="#FFFFFF" fill-rule="nonzero"></path>
            <path d="M145.800384,110.38625 L145.800384,110.38625 C144.032045,111.128265 142.503649,112.342939 141.383832,113.89625 C141.139374,114.22125 140.992698,114.1725 140.943807,113.6525 C140.943807,112.36875 140.829726,109.07 140.943807,108.85875 C142.052019,105.60875 145.1159,102.87875 145.832979,102.87875 L145.832979,102.87875 L145.832979,91 L145.670006,91 C143.714337,91 135.207178,97.63 132.110703,105.755 C131.279543,107.94875 135.370151,138.6775 136.331688,143.21125 C136.373785,143.749122 136.789025,144.18352 137.325819,144.25125 L142.214991,144.25125 C142.052019,142.74 141.937938,141.18 141.823858,139.66875 C141.409216,135.348202 141.224255,131.008797 141.269752,126.66875 C142.100911,124.6375 144.252146,121.92375 145.849276,121.92375 L145.849276,121.92375 L145.849276,110.38625 L145.800384,110.38625 Z" id="Shape-11-Copy" fill="#FFFFFF" fill-rule="nonzero"></path>
            <path d="M146.047767,124 C144.594481,124.858303 143.513832,126.225475 143.01648,127.835 C142.853508,128.355 143.929125,149.82125 144.923257,153.36375 C145.118824,154.04625 145.754416,155.31375 146.080361,155.31375 L146.080361,155.31375 L146.080361,124.0325 L146.047767,124 Z" id="Shape-12-Copy" fill="#FFFFFF" fill-rule="nonzero"></path>
            <path d="M1.90915759,97.01625 L24.7252935,97.01625 C25.0023465,100.4125 30.5271109,107.38375 34.1125037,109.46375 L14.1972765,109.46375 C11.0447631,109.811479 7.92137855,108.597315 5.83679241,106.21375 C3.53422348,104.025675 1.62673679,101.458582 0.197947395,98.625 C-0.274672563,97.715 0.0349749957,97 1.82767139,97 L1.90915759,97.01625 Z" id="Shape-13-Copy" fill="#FFFFFF" fill-rule="nonzero"></path>
            <path d="M33.8951112,112 L56.7112471,112 C56.9883001,115.39625 61.8774721,121.6525 65.4954594,123.7325 L45.5965294,123.7325 C42.444016,124.080229 39.3206315,122.866065 37.2360454,120.4825 C35.1297176,118.538035 33.4149855,116.210553 32.183901,113.625 C31.7438755,112.66625 32.0209286,112 33.813625,112 L33.8951112,112 Z" id="Shape-14-Copy" fill="#FFFFFF" fill-rule="nonzero"></path>
            <path d="M64.8876381,126 L87.703774,126 C87.9808271,129.39625 92.869999,135.6525 96.4879863,137.7325 L76.5890564,137.7325 C73.4365429,138.080229 70.3131584,136.866065 68.2285723,134.4825 C66.1222445,132.538035 64.4075124,130.210553 63.1764279,127.625 C62.7364024,126.66625 63.0623472,126 64.8061519,126 L64.8876381,126 Z" id="Shape-16-Copy" fill="#FFFFFF" fill-rule="nonzero"></path>
            <path d="M302.763689,100.448941 C302.763689,99.9096724 302.676635,99.4140289 302.502525,98.9619952 C302.328415,98.5099615 302.087039,98.121377 301.778389,97.79623 C301.469739,97.471083 301.109653,97.2192961 300.69812,97.0408618 C300.286587,96.8624274 299.843405,96.7732116 299.368559,96.7732116 C298.885799,96.7732116 298.436681,96.8624274 298.021191,97.0408618 C297.605701,97.2192961 297.243636,97.471083 296.934987,97.79623 C296.626337,98.121377 296.384961,98.5099615 296.210851,98.9619952 C296.03674,99.4140289 295.949687,99.9096724 295.949687,100.448941 C295.949687,100.956487 296.028827,101.432305 296.187108,101.876408 C296.34539,102.320511 296.572917,102.709096 296.869696,103.042173 C297.166474,103.375251 297.524582,103.638933 297.944029,103.833228 C298.363476,104.027523 298.838315,104.12467 299.368559,104.12467 C299.843405,104.12467 300.286587,104.035454 300.69812,103.857019 C301.109653,103.678585 301.469739,103.426798 301.778389,103.101651 C302.087039,102.776504 302.328415,102.389902 302.502525,101.941834 C302.676635,101.493765 302.763689,100.996139 302.763689,100.448941 Z M303.713376,100.448941 C303.713376,101.115095 303.596645,101.721763 303.363179,102.268962 C303.129713,102.81616 302.813154,103.284048 302.413492,103.672638 C302.01383,104.061229 301.550863,104.36258 301.024575,104.576701 C300.498288,104.790822 299.946288,104.897881 299.368559,104.897881 C298.727517,104.897881 298.139904,104.784874 297.605703,104.558858 C297.071502,104.332841 296.612491,104.021577 296.228657,103.625056 C295.844824,103.228535 295.544092,102.758665 295.326455,102.215432 C295.108817,101.672198 295,101.083374 295,100.448941 C295,99.7827857 295.116731,99.1761181 295.350197,98.6289194 C295.583663,98.0817208 295.900222,97.6138333 296.299884,97.225243 C296.699546,96.8366527 297.164492,96.5353014 297.694736,96.3211802 C298.224981,96.107059 298.782916,96 299.368559,96 C299.946288,96 300.498288,96.107059 301.024575,96.3211802 C301.550863,96.5353014 302.01383,96.8366527 302.413492,97.225243 C302.813154,97.6138333 303.129713,98.0817208 303.363179,98.6289194 C303.596645,99.1761181 303.713376,99.7827857 303.713376,100.448941 Z M299.392301,100.199134 C299.542669,100.199134 299.687099,100.193186 299.825596,100.18129 C299.964092,100.169395 300.084781,100.135691 300.187664,100.080178 C300.290547,100.024665 300.373644,99.9473448 300.436957,99.8482146 C300.500269,99.7490845 300.531925,99.6083217 300.531925,99.4259222 C300.531925,99.2752443 300.498291,99.1562898 300.431021,99.0690553 C300.363751,98.9818207 300.278676,98.9144132 300.175793,98.8668307 C300.072909,98.8192482 299.958157,98.7895096 299.831531,98.777614 C299.704906,98.7657184 299.582239,98.7597706 299.463528,98.7597706 L298.490099,98.7597706 L298.490099,100.199134 L299.392301,100.199134 Z M298.490099,102.994591 L297.682865,102.994591 L297.682865,98.069828 L299.546625,98.069828 C300.140182,98.069828 300.587322,98.1808521 300.888058,98.4029037 C301.188793,98.6249554 301.339159,98.9857838 301.339159,99.4854 C301.339159,99.9295032 301.216492,100.254645 300.971155,100.460836 C300.725818,100.667027 300.42113,100.789947 300.057082,100.829599 L301.434128,102.994591 L300.520054,102.994591 L299.249848,100.889076 L298.490099,100.889076 L298.490099,102.994591 Z" id="®-copy" fill="#FFFFFF"></path>
            <mask id="mask-2" fill="white">
                <use xlink:href="#path-1"></use>
            </mask>
            <g id="Clip-6-Copy"></g>
            <polygon id="Fill-5-Copy" fill="#FFFFFF" mask="url(#mask-2)" points="144.352775 0 144.352775 0 110 12.2228856 115.239941 57.5432836 144.352775 73.6318408 173.465241 57.5432836 178.705182 12.2228856"></polygon>
            <path d="M150.747594,38.6676617 L138.202139,38.6676617 L144.474866,23.6103184 L150.747594,38.6676617 Z M144.474866,8 L123,56.0447761 L131.006952,56.0447761 L135.323695,45.2945274 L153.551872,45.2945274 L157.868984,56.0447761 L165.875936,56.0447761 L144.474866,8 Z" id="Fill-11-Copy" fill="#C1002D" mask="url(#mask-2)"></path>
        </g>
    </g>
</svg>